<svg xmlns="http://www.w3.org/2000/svg" width="1080" height="1920" viewBox="0 0 1080 1920"><g fill="none"><circle cx="360" cy="760" r="52.5" stroke="#FFFFFF" stroke-width="12" stroke-linecap="round" stroke-linejoin="round" fill="none" opacity="1.0" /><line x1="360" y1="812.5" x2="391.25" y2="1006.25" stroke="#FFFFFF" stroke-width="12" stroke-linecap="round" stroke-linejoin="round" fill="none" opacity="1.0" /><polyline points="360,850.0 316.25,918.75 285.0,993.75" stroke="#FFFFFF" stroke-width="12" stroke-linecap="round" stroke-linejoin="round" fill="none" opacity="1.0" /><polyline points="360,850.0 491.25,918.75 522.5,993.75" stroke="#FFFFFF" stroke-width="12" stroke-linecap="round" stroke-linejoin="round" fill="none" opacity="1.0" /><polyline points="391.25,1006.25 310.0,1106.25 278.75,1162.5" stroke="#FFFFFF" stroke-width="12" stroke-linecap="round" stroke-linejoin="round" fill="none" opacity="1.0" /><polyline points="391.25,1006.25 460.0,1106.25 491.25,1162.5" stroke="#FFFFFF" stroke-width="12" stroke-linecap="round" stroke-linejoin="round" fill="none" opacity="1.0" /><circle cx="760" cy="790" r="48.3" stroke="#FFFFFF" stroke-width="12" stroke-linecap="round" stroke-linejoin="round" fill="none" opacity="1.0" /><line x1="760" y1="838.3" x2="788.75" y2="1016.55" stroke="#FFFFFF" stroke-width="12" stroke-linecap="round" stroke-linejoin="round" fill="none" opacity="1.0" /><polyline points="760,872.8 880.75,936.05 909.5,1005.05" stroke="#FFFFFF" stroke-width="12" stroke-linecap="round" stroke-linejoin="round" fill="none" opacity="1.0" /><polyline points="760,872.8 719.75,936.05 691.0,1005.05" stroke="#FFFFFF" stroke-width="12" stroke-linecap="round" stroke-linejoin="round" fill="none" opacity="1.0" /><polyline points="788.75,1016.55 852.0,1108.55 880.75,1160.3" stroke="#FFFFFF" stroke-width="12" stroke-linecap="round" stroke-linejoin="round" fill="none" opacity="1.0" /><polyline points="788.75,1016.55 714.0,1108.55 685.25,1160.3" stroke="#FFFFFF" stroke-width="12" stroke-linecap="round" stroke-linejoin="round" fill="none" opacity="1.0" /><path d="M 455,900 Q 560.0,936.0 665,895" stroke="#FFFFFF" stroke-width="12" stroke-linecap="round" stroke-linejoin="round" fill="none" opacity="1.0" /><rect x="250" y="1010" width="580" height="190" stroke="#FFFFFF" stroke-width="12" stroke-linecap="round" stroke-linejoin="round" fill="none" opacity="0.85" rx="14" /><line x1="285" y1="1080" x2="795" y2="1080" stroke="#FFFFFF" stroke-width="7.8" stroke-linecap="round" stroke-linejoin="round" fill="none" opacity="0.85" /></g></svg>